<?xml version="1.0" encoding="utf-8"?>
<!-- Generator: Adobe Illustrator 25.2.0, SVG Export Plug-In . SVG Version: 6.00 Build 0)  -->
<svg version="1.1" xmlns="http://www.w3.org/2000/svg" xmlns:xlink="http://www.w3.org/1999/xlink" x="0px" y="0px"
	 viewBox="0 0 378.14 103.96" style="enable-background:new 0 0 378.14 103.96;" xml:space="preserve">
<style type="text/css">
	.st0{fill:#FF3228;}
	.st1{fill:#FFFFFF;}
	.st2{fill:#1E1E1E;}
</style>
<g id="Layer_2">
</g>
<g id="Layer_1">
	<g>
		<g>
			<rect x="0" class="st0" width="103.76" height="103.76"/>
		</g>
		<path class="st1" d="M82.51,55.35c-1.48,6.81-6.86,8.73-9.14,9.25c-0.96,0.22-1.93,0.33-2.9,0.33c-3.13,0-6.09-1.18-8.16-3.23
			l25.82-14.92c-1.21-3.1-2.83-6.1-5.36-8.45c-4.49-4.16-11.02-6.06-17.03-4.64c-3.13,0.74-6.08,2.34-8.49,4.46
			c-2.07,1.82-3.78,4.06-4.93,6.57c-0.21,0.46-0.41,0.94-0.58,1.42c-0.26,0.72-0.47,1.46-0.63,2.22V34.79h-8.06v19.95
			c0,5.88-4.23,10.32-9.84,10.32c-5.65,0-9.91-4.44-9.91-10.32V34.79h-8.06v19.95c0,10.49,7.56,18.11,17.97,18.11
			c9.88,0,17.16-6.91,17.83-16.63c0.59,3.19,1.89,6.32,3.87,9c3.52,4.78,9.34,7.63,15.57,7.63c1.55,0,3.12-0.18,4.65-0.52
			c7.75-1.75,13.53-7.67,15.16-15.48L82.51,55.35z M58.86,55.02c-0.45-2.22-0.34-4.35,0.32-6.18c0.98-2.69,3.05-4.93,5.54-6.31
			c4.25-2.36,9.92-1.82,13.16,2.06L58.96,55.52L58.86,55.02z"/>
	</g>
	<g>
		<path class="st2" d="M126.95,34.58V14.15H134v20.43c0,3.71,2.67,6.48,6.19,6.48c3.52,0,6.14-2.76,6.14-6.48V14.15h7.05v20.43
			c0,7.67-5.62,13.33-13.19,13.33C132.57,47.91,126.95,42.25,126.95,34.58"/>
		<path class="st2" d="M180.9,34.25v13.24h-6.71v-12.1c0-3.24-1.76-5.1-4.52-5.1c-1.86,0-3.71,1.05-4.67,2.67v14.52h-6.71V24.1H165
			v2.76c1.29-2,3.76-3.24,6.38-3.24C177.29,23.63,180.9,27.68,180.9,34.25"/>
		<path class="st2" d="M192.33,47.49h-6.71V24.1h6.71V47.49z M193.05,16.82c0,2.24-1.86,4.09-4.09,4.09s-4.1-1.86-4.1-4.09
			c0-2.19,1.86-4.05,4.1-4.05S193.05,14.63,193.05,16.82"/>
		<polygon class="st2" points="210.53,47.49 204.81,47.49 195.1,24.1 202.38,24.1 207.67,38.34 212.86,24.1 220.19,24.1 		"/>
		<path class="st2" d="M237,33.1c-0.29-2.33-2.43-4.05-4.91-4.05c-2.81,0-4.67,1.52-5.29,4.05H237z M243.53,37.39h-16.81
			c0.62,3.19,2.81,4.86,6,4.86c2.09,0,4.29-0.95,5.1-2.38l5.24,3.19c-1.71,3.09-5.62,4.9-10.48,4.9c-6.86,0-12.29-5.33-12.29-12.29
			c0-6.81,5.33-12.05,12.14-12.05c6.33,0,11.29,4.9,11.29,11.14C243.72,35.58,243.67,36.48,243.53,37.39"/>
		<path class="st2" d="M262.67,24.06l-0.38,6.29c-0.9-0.33-2.05-0.52-3-0.52c-1.52,0-3.95,1.24-5.1,3.52v14.14h-6.71V24.1h6.71v2.76
			c1.14-2,3.67-3.24,5.62-3.24C261,23.63,261.96,23.77,262.67,24.06"/>
		<path class="st2" d="M263.34,45.01l2-4.67c2.19,1.62,5.05,2.48,7.9,2.48c2.1,0,3.43-0.81,3.43-1.9
			c-0.05-3.57-12.62-0.9-12.71-9.52c-0.05-4.38,3.86-7.76,9.38-7.76c3.29,0,6.57,0.81,8.91,2.67l-1.91,4.86
			c-1.81-1.38-4.76-2.43-7.29-2.43c-1.71,0-2.86,0.81-2.86,1.86c0.05,3.38,12.71,1.52,12.86,9.91c0,4.33-3.81,7.48-9.24,7.48
			C269.82,47.96,266.15,47.01,263.34,45.01"/>
		<path class="st2" d="M293.39,47.49h-6.71V24.1h6.71V47.49z M294.1,16.82c0,2.24-1.86,4.09-4.09,4.09c-2.24,0-4.1-1.86-4.1-4.09
			c0-2.19,1.86-4.05,4.1-4.05C292.25,12.77,294.1,14.63,294.1,16.82"/>
		<polygon class="st2" points="147.48,55.98 147.48,62.74 134.1,62.74 134.1,68.74 146.01,68.74 146.01,75.5 134.1,75.5 
			134.1,82.55 147.48,82.55 147.48,89.31 127.06,89.31 127.06,55.98 		"/>
		<path class="st2" d="M173.77,65.93v23.38h-6.71v-2.76c-1.33,2-3.81,3.24-6.38,3.24c-5.91,0-9.52-4.05-9.52-10.67V65.93h6.71v12.1
			c0,3.24,1.76,5.05,4.52,5.05c1.81,0,3.67-1,4.67-2.62V65.93H173.77z"/>
		<path class="st2" d="M193.68,65.88l-0.38,6.29c-0.9-0.33-2.05-0.52-3-0.52c-1.52,0-3.95,1.24-5.1,3.52v14.14h-6.71V65.93h6.71
			v2.76c1.14-2,3.67-3.24,5.62-3.24C192.01,65.45,192.96,65.59,193.68,65.88"/>
		<path class="st2" d="M200.78,77.64c0,3.24,2.38,5.71,5.57,5.71c3.14,0,5.57-2.48,5.57-5.71c0-3.33-2.43-5.76-5.57-5.76
			C203.16,71.88,200.78,74.31,200.78,77.64 M218.49,77.64c0,6.95-5.29,12.14-12.14,12.14c-6.9,0-12.14-5.19-12.14-12.14
			c0-6.95,5.24-12.19,12.14-12.19C213.2,65.45,218.49,70.69,218.49,77.64"/>
		<path class="st2" d="M235.87,65.45c-2.95,0-5.76,1.33-6.91,3.24v-2.76h-6.71v31.1h6.71V86.55c1.14,1.9,3.95,3.24,6.91,3.24
			c6.1,0,10.86-5.43,10.86-12.19C246.73,70.83,241.97,65.45,235.87,65.45z M234.35,83.36c-3.19,0-5.57-2.48-5.57-5.71
			c0-3.33,2.38-5.76,5.57-5.76c3.14,0,5.57,2.43,5.57,5.76C239.92,80.88,237.49,83.36,234.35,83.36z"/>
		<path class="st2" d="M314.96,14.15v12.71c-1.14-1.9-4-3.24-6.9-3.24c-6.1,0-10.91,5.38-10.91,12.14c0,6.76,4.81,12.19,10.91,12.19
			c2.95,0,5.76-1.33,6.9-3.24v2.76h6.71V14.15H314.96z M309.53,41.53c-3.19,0-5.57-2.48-5.57-5.71c0-3.33,2.38-5.76,5.57-5.76
			c3.14,0,5.57,2.43,5.57,5.76C315.1,39.06,312.67,41.53,309.53,41.53z"/>
		<path class="st2" d="M342.96,24.1v2.76c-1.14-1.9-4-3.24-6.9-3.24c-6.1,0-10.91,5.38-10.91,12.14c0,6.76,4.81,12.19,10.91,12.19
			c2.95,0,5.76-1.33,6.9-3.24v2.76h6.71V24.1H342.96z M337.54,41.53c-3.19,0-5.57-2.48-5.57-5.71c0-3.33,2.38-5.76,5.57-5.76
			c3.14,0,5.57,2.43,5.57,5.76C343.11,39.06,340.68,41.53,337.54,41.53z"/>
		<path class="st2" d="M371.2,14.15v12.71c-1.14-1.9-4-3.24-6.9-3.24c-6.1,0-10.91,5.38-10.91,12.14c0,6.76,4.81,12.19,10.91,12.19
			c2.95,0,5.76-1.33,6.9-3.24v2.76h6.71V14.15H371.2z M365.77,41.51c-3.19,0-5.57-2.48-5.57-5.71c0-3.33,2.38-5.76,5.57-5.76
			c3.14,0,5.57,2.43,5.57,5.76C371.35,39.03,368.92,41.51,365.77,41.51z"/>
		<path class="st2" d="M293.02,65.93v2.76c-1.14-1.9-4-3.24-6.9-3.24c-6.1,0-10.91,5.38-10.91,12.14c0,6.76,4.81,12.19,10.91,12.19
			c2.95,0,5.76-1.33,6.9-3.24v2.76h6.71V65.93H293.02z M287.59,83.36c-3.19,0-5.57-2.48-5.57-5.71c0-3.33,2.38-5.76,5.57-5.76
			c3.14,0,5.57,2.43,5.57,5.76C293.16,80.88,290.73,83.36,287.59,83.36z"/>
		<path class="st2" d="M267.67,79.42c-0.7,2.88-3.38,4.86-6.39,4.86c-1.75,0-3.29-0.67-4.41-1.79l10.65-6.15c0,0,0,0,0,0.01
			l5.02-2.91c-1.61-4.78-5.96-8.03-11.26-8.03c-6.79,0-11.94,5.25-11.94,12.23s5.15,12.18,11.94,12.18c5.76,0,10.64-3.75,11.87-9.21
			L267.67,79.42z M254.94,77.63c0-3.87,2.71-6.7,6.35-6.7c1.51,0,2.88,0.51,3.95,1.38l-10.29,5.65
			C254.95,77.86,254.94,77.75,254.94,77.63z"/>
	</g>
</g>
</svg>
